<svg width="40" height="35" viewBox="0 0 40 35" fill="none" xmlns="http://www.w3.org/2000/svg">
<path d="M11.174 24.266H34.141C34.3963 24.266 34.6449 24.1836 34.8495 24.031C35.0542 23.8784 35.2042 23.6637 35.277 23.419L39.951 7.725C40.0036 7.54813 40.0142 7.36142 39.982 7.17973C39.9497 6.99805 39.8754 6.82641 39.7651 6.6785C39.6548 6.53058 39.5114 6.41048 39.3465 6.32775C39.1815 6.24503 38.9995 6.20196 38.815 6.202H8.655L7.061 0.847C6.98817 0.602275 6.83824 0.387619 6.63355 0.234997C6.42885 0.0823748 6.18033 -4.88229e-05 5.925 2.16966e-08H1.185C0.870718 2.16966e-08 0.569309 0.124846 0.347078 0.347076C0.124848 0.569307 0 0.870716 0 1.185C0 1.49928 0.124848 1.80069 0.347078 2.02292C0.569309 2.24515 0.870718 2.37 1.185 2.37H5.041L6.628 7.699C6.628 7.717 6.638 7.734 6.644 7.751L10.86 21.908C9.66072 21.9869 8.53918 22.5293 7.73266 23.4204C6.92615 24.3115 6.49792 25.4814 6.53859 26.6826C6.57925 27.8838 7.08561 29.022 7.95054 29.8565C8.81547 30.6911 9.97112 31.1564 11.173 31.154H12.35C12.6065 32.035 13.1419 32.8089 13.8758 33.3596C14.6097 33.9103 15.5025 34.208 16.42 34.208C17.3375 34.208 18.2303 33.9103 18.9642 33.3596C19.6981 32.8089 20.2335 32.035 20.49 31.154H26.778C27.0345 32.035 27.5699 32.8089 28.3038 33.3596C29.0377 33.9103 29.9305 34.208 30.848 34.208C31.7655 34.208 32.6583 33.9103 33.3922 33.3596C34.1261 32.8089 34.6615 32.035 34.918 31.154H36.445C36.7593 31.154 37.0607 31.0292 37.2829 30.8069C37.5051 30.5847 37.63 30.2833 37.63 29.969C37.63 29.6547 37.5051 29.3533 37.2829 29.1311C37.0607 28.9088 36.7593 28.784 36.445 28.784H34.918C34.6615 27.903 34.1261 27.1291 33.3922 26.5784C32.6583 26.0277 31.7655 25.73 30.848 25.73C29.9305 25.73 29.0377 26.0277 28.3038 26.5784C27.5699 27.1291 27.0345 27.903 26.778 28.784H20.49C20.2335 27.903 19.6981 27.1291 18.9642 26.5784C18.2303 26.0277 17.3375 25.73 16.42 25.73C15.5025 25.73 14.6097 26.0277 13.8758 26.5784C13.1419 27.1291 12.6065 27.903 12.35 28.784H11.174C10.5749 28.784 10.0003 28.546 9.57665 28.1224C9.153 27.6987 8.915 27.1241 8.915 26.525C8.915 25.9259 9.153 25.3513 9.57665 24.9276C10.0003 24.504 10.5749 24.266 11.174 24.266ZM28.558 8.571H37.225L35.594 14.048H28.558V8.571ZM28.558 16.418H34.888L33.257 21.895H28.557L28.558 16.418ZM19.789 8.571H26.189V14.048H19.789V8.571ZM19.789 16.418H26.189V21.895H19.789V16.418ZM17.419 21.895H13.33L11.7 16.419H17.421L17.419 21.895ZM9.361 8.571H17.419V14.048H10.993L9.361 8.571ZM30.848 28.099C31.2178 28.099 31.5794 28.2087 31.8869 28.4142C32.1944 28.6196 32.4341 28.9117 32.5757 29.2534C32.7172 29.5951 32.7542 29.9711 32.6821 30.3338C32.6099 30.6966 32.4318 31.0298 32.1703 31.2913C31.9088 31.5528 31.5756 31.7309 31.2128 31.8031C30.8501 31.8752 30.4741 31.8382 30.1324 31.6967C29.7907 31.5551 29.4986 31.3154 29.2932 31.0079C29.0877 30.7004 28.978 30.3389 28.978 29.969C28.9785 29.4732 29.1757 28.9979 29.5263 28.6473C29.8769 28.2967 30.3522 28.0995 30.848 28.099ZM16.42 28.099C16.7899 28.099 17.1514 28.2087 17.4589 28.4142C17.7664 28.6196 18.0061 28.9117 18.1477 29.2534C18.2892 29.5951 18.3262 29.9711 18.2541 30.3338C18.1819 30.6966 18.0038 31.0298 17.7423 31.2913C17.4808 31.5528 17.1476 31.7309 16.7848 31.8031C16.4221 31.8752 16.0461 31.8382 15.7044 31.6967C15.3627 31.5551 15.0706 31.3154 14.8652 31.0079C14.6597 30.7004 14.55 30.3389 14.55 29.969C14.5505 29.4732 14.7477 28.9979 15.0983 28.6473C15.4489 28.2967 15.9242 28.0995 16.42 28.099Z" fill="#1F8530"/>
</svg>
