<svg width="23" height="24" viewBox="0 0 23 24" fill="none" xmlns="http://www.w3.org/2000/svg">
<path d="M15.49 3.436C14.3081 2.25264 12.8132 1.43097 11.1807 1.06746C9.54815 0.703945 7.84583 0.813666 6.27349 1.38374C4.70116 1.95382 3.32407 2.96059 2.30387 4.28589C1.28367 5.61119 0.662695 7.20001 0.513837 8.86587C0.364978 10.5317 0.694412 12.2055 1.46347 13.6907C2.23253 15.1758 3.4093 16.4108 4.85564 17.2506C6.30199 18.0905 7.9579 18.5003 9.62899 18.432C11.3001 18.3637 12.917 17.8201 14.29 16.865C14.3625 17.2177 14.5362 17.5416 14.79 17.797L19.781 22.788C20.1307 23.1293 20.6007 23.319 21.0893 23.316C21.5779 23.313 22.0456 23.1176 22.3911 22.7721C22.7366 22.4266 22.932 21.9589 22.935 21.4703C22.938 20.9817 22.7483 20.5117 22.407 20.162L17.419 15.165C17.1642 14.912 16.8415 14.7383 16.49 14.665C17.664 12.9722 18.2069 10.9213 18.0242 8.86935C17.8414 6.81744 16.9446 4.89467 15.49 3.436ZM13.917 14.292C12.9993 15.2097 11.8301 15.8347 10.5571 16.0879C9.28424 16.3411 7.96484 16.2112 6.76578 15.7145C5.56673 15.2179 4.54188 14.3768 3.82083 13.2977C3.09979 12.2185 2.71493 10.9498 2.71493 9.652C2.71493 8.35416 3.09979 7.08546 3.82083 6.00634C4.54188 4.92722 5.56673 4.08615 6.76578 3.5895C7.96484 3.09284 9.28424 2.96289 10.5571 3.2161C11.8301 3.4693 12.9993 4.09428 13.917 5.012C15.1456 6.24365 15.8356 7.91232 15.8356 9.652C15.8356 11.3917 15.1456 13.0604 13.917 14.292Z" fill="white"/>
</svg>
