<svg width="35" height="35" viewBox="0 0 35 35" fill="none" xmlns="http://www.w3.org/2000/svg">
<path d="M29.5992 5.01027C28.0109 3.42186 26.1252 2.16186 24.0499 1.3022C21.9746 0.442533 19.7504 4.6433e-05 17.5041 3.65915e-09C12.9675 -9.37645e-05 8.61663 1.80197 5.4087 5.00977C2.20078 8.21756 0.398531 12.5683 0.398438 17.1049C0.398344 21.6415 2.20041 25.9923 5.4082 29.2003C8.616 32.4082 12.9668 34.2104 17.5034 34.2105C22.0399 34.2106 26.3908 32.4086 29.5987 29.2008C32.8066 25.993 34.6089 21.6422 34.609 17.1056C34.6091 12.569 32.807 8.21819 29.5992 5.01027ZM8.9732 29.5573C9.3267 27.5519 10.3755 25.7352 11.9353 24.4262C13.4952 23.1173 15.4664 22.3998 17.5027 22.3998C19.539 22.3998 21.5102 23.1173 23.0701 24.4262C24.6299 25.7352 25.6787 27.5519 26.0322 29.5573C23.5219 31.2812 20.548 32.204 17.5027 32.204C14.4574 32.204 11.4836 31.2812 8.9732 29.5573ZM12.0642 14.9573C12.0652 13.8818 12.385 12.8308 12.9833 11.9371C13.5816 11.0434 14.4314 10.3472 15.4253 9.93649C16.4193 9.52576 17.5126 9.41895 18.5673 9.62959C19.6219 9.84022 20.5904 10.3588 21.3503 11.1199C22.1102 11.8809 22.6274 12.8501 22.8364 13.905C23.0455 14.96 22.9371 16.0532 22.5249 17.0465C22.1127 18.0399 21.4153 18.8886 20.5207 19.4856C19.6261 20.0826 18.5747 20.4009 17.4992 20.4003C16.0575 20.3984 14.6754 19.8249 13.656 18.8055C12.6366 17.786 12.0631 16.4039 12.0612 14.9623L12.0642 14.9573ZM27.7642 28.1673C27.3244 26.6108 26.537 25.1746 25.4613 23.9669C24.3855 22.7591 23.0496 21.8114 21.5542 21.1953C22.9 20.3208 23.927 19.0347 24.4822 17.5289C25.0374 16.023 25.0909 14.378 24.6349 12.8393C24.1789 11.3005 23.2376 9.95032 21.9516 8.99014C20.6656 8.02995 19.1036 7.51118 17.4987 7.51118C15.8938 7.51118 14.3318 8.02995 13.0458 8.99014C11.7598 9.95032 10.8185 11.3005 10.3625 12.8393C9.90646 14.378 9.96003 16.023 10.5152 17.5289C11.0704 19.0347 12.0974 20.3208 13.4432 21.1953C11.9477 21.8113 10.6117 22.759 9.53598 23.9667C8.46022 25.1745 7.67283 26.6108 7.2332 28.1673C5.00729 26.1038 3.45488 23.4175 2.77846 20.4586C2.10204 17.4997 2.333 14.4057 3.44124 11.58C4.54947 8.75439 6.48353 6.3283 8.99113 4.61822C11.4987 2.90814 14.4635 1.99345 17.4987 1.99345C20.5339 1.99345 23.4987 2.90814 26.0063 4.61822C28.5139 6.3283 30.4479 8.75439 31.5562 11.58C32.6644 14.4057 32.8954 17.4997 32.219 20.4586C31.5425 23.4175 29.9901 26.1038 27.7642 28.1673Z" fill="#1F8530"/>
</svg>
